<svg width="131" height="47" viewBox="0 0 131 47" version="1.1" xmlns="http://www.w3.org/2000/svg" xmlns:xlink="http://www.w3.org/1999/xlink"><title>VTEX_Logo</title><defs></defs><g id="Page-1" stroke="none" stroke-width="1" fill="none" fill-rule="evenodd"><g id="VTEX_Logo" fill="#888888" fill-rule="nonzero"><path d="M94.4380282,17.7976624 L89.8239437,17.7976624 L89.8239437,33.4635543 C89.8216442,33.7588753 89.5808414,33.9977194 89.2830986,34 L85.7295775,34 C85.4318346,33.9977194 85.1910318,33.7588753 85.1887324,33.4635543 L85.1887324,17.7976624 L80.5408451,17.7976624 C80.4001151,17.8033451 80.2630856,17.752131 80.1611313,17.655746 C80.0591769,17.5593611 80.0010285,17.4260598 80,17.2863626 L80,14.5119323 C80.0010285,14.372235 80.0591769,14.2389338 80.1611313,14.1425488 C80.2630856,14.0461639 80.4001151,13.9949498 80.5408451,14.0006325 L94.4295775,14.0006325 C94.7291613,13.9863759 94.9840696,14.2148637 95,14.5119323 L95,17.2863626 C94.9840666,17.5800349 94.7343813,17.8072066 94.4380282,17.7976624 Z" id="Shape"></path><path d="M109.443214,34.6361652 C107.570822,34.9006385 105.680473,35.0212583 103.789185,34.9969389 C100.183654,34.9969389 97,34.0864148 97,29.0656472 L97,19.9045716 C97,14.883804 100.214098,14.0033443 103.81528,14.0033443 C105.692,13.9779567 107.567866,14.0971443 109.425817,14.3598231 C109.81725,14.4156571 109.982522,14.5530947 109.982522,14.9095735 L109.982522,17.4865287 C109.980155,17.7891741 109.732291,18.033942 109.425817,18.0362791 L103.554325,18.0362791 C102.249549,18.0362791 101.766782,18.4657717 101.766782,19.9131615 L101.766782,22.4213978 L109.221402,22.4213978 C109.527876,22.4237349 109.77574,22.6685028 109.778107,22.9711482 L109.778107,25.5910526 C109.77574,25.8936981 109.527876,26.1384659 109.221402,26.1408031 L101.766782,26.1408031 L101.766782,29.0656472 C101.766782,30.5001522 102.24085,30.9425295 103.554325,30.9425295 L109.443214,30.9425295 C109.749688,30.9448666 109.997552,31.1896345 109.999919,31.4922799 L109.999919,34.0692351 C110.004268,34.4128291 109.834647,34.5803312 109.443214,34.6361652 Z" id="Shape"></path><path d="M130.587786,33.986037 L126.203721,33.986037 C125.89799,34.0081849 125.610968,33.8405923 125.486641,33.5673322 L121.682252,27.705465 L118.247137,33.458469 C118.053912,33.7808717 117.860687,33.9944111 117.555821,33.9944111 L113.48521,33.9944111 C113.37859,34.0130516 113.268987,33.9845487 113.186046,33.9166117 C113.103105,33.8486746 113.055395,33.7483231 113.055821,33.6426991 C113.061443,33.5769075 113.080417,33.5128613 113.111641,33.4542819 L119.093034,23.7445176 L113.055821,14.5162638 C113.024684,14.4666966 113.00559,14.4108399 113,14.3529689 C113.020439,14.1409709 113.211717,13.9842949 113.429389,14.0012568 L117.869275,14.0012568 C118.174141,14.0012568 118.39313,14.2692279 118.560592,14.5120767 L122.090172,19.9552391 L125.525286,14.5120767 C125.649773,14.2367961 125.911149,14.0436629 126.216603,14.0012568 L130.300095,14.0012568 C130.517768,13.9842949 130.709046,14.1409709 130.729485,14.3529689 C130.723895,14.4108399 130.704801,14.4666966 130.673664,14.5162638 L124.662214,23.7989492 L130.918416,33.4291596 C130.966763,33.511018 130.994708,33.6028083 131,33.6971307 C130.948473,33.8813608 130.806775,33.986037 130.587786,33.986037 Z" id="Shape"></path><path d="M72.7643984,14.0001317 C72.5620767,13.995484 72.3850731,14.1398488 72.342625,14.3441314 L68.4074787,29.3756102 C68.3526482,29.6847744 68.2725112,29.8110528 68.0278826,29.8110528 C67.783254,29.8110528 67.7031171,29.6978377 67.6482865,29.3756102 L63.7257935,14.3441314 C63.6833454,14.1398488 63.5063418,13.995484 63.30402,14.0001317 L59.4321398,14.0001317 C59.3021729,13.9968342 59.1779956,14.0555995 59.0955815,14.1594037 C59.0131669,14.2632078 58.9817258,14.4004499 59.0103664,14.5313717 C59.0103664,14.5313717 63.8143659,31.7618357 63.8649787,31.949076 C64.5060744,34.0043651 66.0624184,34.9971743 68.0405358,34.9971743 C69.9383299,35.0674776 71.6476098,33.8197273 72.216093,31.949076 C72.2920122,31.713937 76.9905684,14.5313717 76.9905684,14.5313717 C77.0177074,14.4010872 76.9855661,14.2651457 76.9033363,14.162423 C76.8211065,14.0597002 76.6978424,14.0015074 76.5687949,14.0044861 L72.7643984,14.0001317 Z" id="Shape"></path><path d="M50.8697143,0.000175779481 L9.80807454,0.000175779481 C8.32223487,0.0137640501 6.95061906,0.800087154 6.18780387,2.07561293 C5.42498872,3.35113871 5.38099593,4.93189662 6.0716884,6.24789739 L10.1812842,14.0747135 L2.73425049,14.0747135 C1.7828359,14.0573964 0.89330632,14.5450207 0.395968147,15.3565182 C-0.101370024,16.1680158 -0.132239463,17.1821897 0.314822488,18.0224497 L13.5273016,42.9961721 C14.0014194,43.8930308 14.932494,44.4540818 15.9467296,44.4540818 C16.9609652,44.4540818 17.8920398,43.8930308 18.3661576,42.9961721 L21.952402,36.2292373 L26.4566562,44.7511983 C27.1890098,46.1347107 28.6258632,47 30.1908975,47 C31.7559317,47 33.1927851,46.1347107 33.9251387,44.7511983 L54.5160153,6.02476448 C55.1977861,4.75008608 55.1568849,3.21022088 54.4084087,1.97355422 C53.6599329,0.736887554 52.3148751,-0.0131936749 50.8697143,0.000175779481 Z M32.5223853,16.3618259 L23.5138768,33.2598531 C23.2043704,33.8435177 22.5978874,34.2084459 21.9373878,34.2084459 C21.2768882,34.2084459 20.6704052,33.8435177 20.3608988,33.2598531 L11.468214,16.5248845 C11.1938495,16.0098748 11.2098711,15.3886059 11.5104158,14.8884309 C11.8109606,14.3882559 12.3519138,14.0825915 12.9353139,14.0832955 L31.1325011,14.0832955 C31.6807934,14.0748532 32.1926664,14.3570843 32.4782863,14.8253202 C32.7639063,15.293556 32.7806794,15.8779701 32.5223853,16.3618259 Z" id="Shape"></path></g></g></svg>
